<svg xmlns="http://www.w3.org/2000/svg" viewBox="0 0 64 64" role="img" aria-label="Hapvida">
  <path d="M32 30.5 C25.5 25.5 25 12 32 6 C39 12 38.5 25.5 32 30.5 Z" fill="#ED1C29" transform="rotate(0 32 32)"/>
  <path d="M32 30.5 C25.5 25.5 25 12 32 6 C39 12 38.5 25.5 32 30.5 Z" fill="#F75206" transform="rotate(60 32 32)"/>
  <path d="M32 30.5 C25.5 25.5 25 12 32 6 C39 12 38.5 25.5 32 30.5 Z" fill="#F78C0C" transform="rotate(120 32 32)"/>
  <path d="M32 30.5 C25.5 25.5 25 12 32 6 C39 12 38.5 25.5 32 30.5 Z" fill="#FAC408" transform="rotate(180 32 32)"/>
  <path d="M32 30.5 C25.5 25.5 25 12 32 6 C39 12 38.5 25.5 32 30.5 Z" fill="#F78C0C" transform="rotate(240 32 32)"/>
  <path d="M32 30.5 C25.5 25.5 25 12 32 6 C39 12 38.5 25.5 32 30.5 Z" fill="#F75206" transform="rotate(300 32 32)"/>
</svg>
